<svg xmlns="http://www.w3.org/2000/svg" viewBox="0 0 800 500">
  <defs>
    <linearGradient id="bg" x1="0%" y1="0%" x2="100%" y2="100%">
      <stop offset="0%" stop-color="#0f172a" />
      <stop offset="55%" stop-color="#0f766e" />
      <stop offset="100%" stop-color="#38bdf8" />
    </linearGradient>
  </defs>
  <rect width="800" height="500" rx="36" fill="url(#bg)" />
  <rect x="70" y="72" width="660" height="356" rx="30" fill="rgba(15,23,42,0.72)" stroke="rgba(255,255,255,0.16)" stroke-width="4" />
  <rect x="110" y="110" width="180" height="94" rx="22" fill="rgba(255,255,255,0.12)" />
  <rect x="310" y="110" width="180" height="94" rx="22" fill="rgba(255,255,255,0.12)" />
  <rect x="510" y="110" width="180" height="94" rx="22" fill="rgba(255,255,255,0.12)" />
  <path d="M120 346c52-62 88-95 128-95 44 0 55 46 92 46 34 0 58-35 83-35 46 0 72 69 136 69h97" fill="none" stroke="#67e8f9" stroke-linecap="round" stroke-linejoin="round" stroke-width="10" />
  <rect x="118" y="236" width="248" height="18" rx="9" fill="rgba(255,255,255,0.14)" />
  <rect x="118" y="270" width="196" height="18" rx="9" fill="rgba(255,255,255,0.10)" />
</svg>
